<svg xmlns="http://www.w3.org/2000/svg" xmlns:xlink="http://www.w3.org/1999/xlink" width="425px" height="146px" viewBox="0 0 425 146" version="1.1">
    <title>middle-layer</title>
    <defs>
        <rect id="path-1" x="0" y="0" width="425" height="146"/>
    </defs>
    <g id="mvp-mobile" stroke="none" stroke-width="1" fill="none" fill-rule="evenodd">
        <g id="mobile_user-show-reviews" transform="translate(0.000000, -2966.000000)">
            <g id="footer" transform="translate(0.000000, 2093.000000)">
                <g id="middle-layer" transform="translate(0.000000, 873.000000)">
                    <mask id="mask-2" fill="white">
                        <use xlink:href="#path-1"/>
                    </mask>
                    <g id="Mask"/>
                    <g mask="url(#mask-2)">
                        <g transform="translate(-628.000000, 0.000000)">
                            <path d="M0,82.589531 L40.9425308,60.3214964 C42.2417234,59.6148848 43.7870793,59.5196771 45.1631845,60.0614665 L72.6875,70.8981248 L72.6875,70.8981248 L99.2322541,51.0937146 C100.095916,50.4493568 101.144633,50.1012498 102.222181,50.1012498 L126.496094,50.1012498 L126.496094,50.1012498 L145.969293,31.5744502 C147.576215,30.0456242 149.998252,29.7581508 151.918403,30.8683459 L221.152344,70.8981248 L221.152344,70.8981248 L250.116387,59.8181938 C251.152517,59.4218315 252.291042,59.381305 253.352732,59.7029942 L273.21875,65.7223435 L273.21875,65.7223435 L305.337391,43.3492728 C306.845249,42.2989355 308.807742,42.1603565 310.448238,42.988377 L335.816406,55.792656 L335.816406,55.792656 L367.305001,50.2477101 C367.85558,50.1507565 368.418521,50.1468254 368.970401,50.2360803 L424.4375,59.2067185 L424.4375,59.2067185 L482.499387,30.2020272 C484.006386,29.449209 485.791163,29.5058479 487.247398,30.3527026 L506.664062,41.6442185 L506.664062,41.6442185 L573.519576,1.33069246 C575.218929,0.305991733 577.363439,0.38321962 578.984683,1.5275013 L617.902344,28.995781 L617.902344,28.995781 L651.634351,15.6870776 C653.025719,15.1381239 654.589777,15.2409072 655.89734,15.9672235 L727.59375,55.792656 L727.59375,55.792656 L827.461243,15.5007053 C828.551087,15.0610034 829.760985,15.0192386 830.878555,15.3827421 L855.929688,23.5309373 L855.929688,23.5309373 L877.427038,8.30527111 C878.801286,7.33194968 880.573174,7.11579088 882.141113,7.73018491 L900.234375,14.8199998 L900.234375,14.8199998 L948.332755,0.215685183 C949.542366,-0.151594077 950.846199,-0.0470578633 951.98184,0.508254476 L1010.24023,28.995781 L1010.24023,28.995781 L1073.48828,41.1168748 L1136.49255,7.76300921 C1137.71813,7.11419903 1139.15812,7.00351361 1140.46846,7.45739891 L1202.64844,28.995781 L1202.64844,28.995781 L1239.44978,23.7534353 C1240.46637,23.6086224 1241.50289,23.7803184 1242.41849,24.2451901 L1275.64844,41.1168748 L1275.64844,41.1168748 L1322.66418,24.4108862 C1324.21458,23.8599869 1325.93677,24.1071183 1327.26969,25.0717684 L1369.71875,55.792656 L1369.71875,55.792656 L1429.50302,23.4615656 C1430.53928,22.9011647 1431.74013,22.7246612 1432.8938,22.9631812 L1542.14453,45.5504685 L1542.14453,45.5504685 L1615.33194,29.295976 C1616.2164,29.0995423 1617.13761,29.1471209 1617.99713,29.4336272 L1680,50.1012498 L1680,50.1012498 L1680,190.485771 L0,190.485771 L0,82.589531 Z" id="Path-2" fill="#ED8524" transform="translate(840.000000, 95.242886) scale(-1, 1) translate(-840.000000, -95.242886) "/>
                            <path d="M0,94.4231676 L32.5955086,81.9558819 C33.5042474,81.6083031 34.4946523,81.5334052 35.4453275,81.7403684 L93.703125,94.4231676 L93.703125,94.4231676 L142.502612,57.1015346 C143.988473,55.9651539 145.984378,55.7532127 147.675754,56.5522087 L161.335938,63.0051988 L161.335938,63.0051988 L182.511279,56.0598828 C184.05695,55.5529169 185.752627,55.8295557 187.057025,56.8014918 L228.824219,87.9231676 L228.824219,87.9231676 L249.443686,81.8504608 C250.389748,81.5718328 251.397082,81.5792124 252.338961,81.8716711 L271.828125,87.9231676 L271.828125,87.9231676 L285.004093,82.4760098 C286.589463,81.8205922 288.400156,82.0237027 289.800912,83.0140824 L305.9375,94.4231676 L305.9375,94.4231676 L342.256131,81.9817468 C343.312682,81.6198114 344.459992,81.6220265 345.515138,81.9880392 L381.363281,94.4231676 L381.363281,94.4231676 L398.923295,82.9283358 C400.355184,81.9910171 402.166998,81.8511627 403.725772,82.5576314 L429.90625,94.4231676 L429.90625,94.4231676 L502.264039,56.4015835 C503.643672,55.6766327 505.282447,55.6364595 506.695944,56.2929389 L521.148437,63.0051988 L521.148437,63.0051988 L561.50602,34.5402703 C562.983635,33.4980819 564.908807,33.3348675 566.540783,34.1134273 L589.617187,45.1223863 L589.617187,45.1223863 L629.595379,45.1223863 C630.822132,45.1223863 632.006074,45.5733787 632.921928,46.3895494 L672.234375,81.4231676 L672.234375,81.4231676 L691.600464,65.6327299 C693.094954,64.4141743 695.156972,64.1636219 696.899795,64.9888167 L731.609375,81.4231676 L731.609375,81.4231676 L781.491249,56.0832208 C782.548478,55.5461496 783.762176,55.4023122 784.915654,55.6773891 L818.296875,63.6380113 L818.296875,63.6380113 L894.284667,28.4625742 C895.464866,27.9162494 896.811492,27.8512626 898.038814,28.2814029 L974.992187,55.2512926 L974.992187,55.2512926 L1029.14174,45.4809356 C1030.4165,45.250927 1031.73078,45.5246155 1032.80776,46.244358 L1070.28516,71.2903551 L1070.28516,71.2903551 L1180.11091,40.5164194 C1181.35322,40.1683165 1182.682,40.3138912 1183.81947,40.9227113 L1210.58984,55.2512926 L1210.58984,55.2512926 L1242.66997,29.9024404 C1244.39359,28.5404855 1246.80427,28.4630746 1248.61171,29.7116417 L1293.92969,61.0169176 L1293.92969,61.0169176 L1339.22656,74.7014879 L1384.30301,54.6756742 C1385.37057,54.2013964 1386.5705,54.1158847 1387.69453,54.4339809 L1410.95605,61.0169176 L1410.95605,61.0169176 L1432.8623,43.5529083 C1434.28257,42.4206476 1436.20516,42.1476632 1437.88448,42.8398222 L1499.55664,68.2591051 L1499.55664,68.2591051 L1574.29512,40.778905 C1575.68283,40.2686633 1577.22522,40.3987728 1578.50785,41.1342743 L1607.66992,57.8567613 L1607.66992,57.8567613 L1680,71.2903551 L1680,170.829418 L0,170.829418 L0,94.4231676 Z" id="Path-3" fill="#F0AF22"/>
                        </g>
                    </g>
                </g>
            </g>
        </g>
    </g>
</svg>